<?xml version="1.0" encoding="UTF-8" standalone="no"?>
<!DOCTYPE svg PUBLIC "-//W3C//DTD SVG 1.1//EN" "http://www.w3.org/Graphics/SVG/1.1/DTD/svg11.dtd">
<!-- Created with Vectornator (http://vectornator.io/) -->
<svg height="100%" stroke-miterlimit="10" style="fill-rule:nonzero;clip-rule:evenodd;stroke-linecap:round;stroke-linejoin:round;" version="1.1" viewBox="0 0 1556.79 643.664" width="100%" xml:space="preserve" xmlns="http://www.w3.org/2000/svg" xmlns:vectornator="http://vectornator.io" xmlns:xlink="http://www.w3.org/1999/xlink">
<defs>
<filter color-interpolation-filters="sRGB" filterUnits="userSpaceOnUse" height="604.753" id="Filter" width="833.972" x="364.433" y="19.6716">
<feGaussianBlur in="SourceGraphic" result="Blur" stdDeviation="44.3557"/>
</filter>
<linearGradient gradientTransform="matrix(612.193 0 0 612.193 475.322 322.048)" gradientUnits="userSpaceOnUse" id="LinearGradient" x1="0" x2="1" y1="0" y2="0">
<stop offset="0" stop-color="#3395ff"/>
<stop offset="1" stop-color="#fa0db0"/>
</linearGradient>
<filter color-interpolation-filters="sRGB" filterUnits="userSpaceOnUse" height="663.221" id="Filter_2" width="925.898" x="-33.5905" y="-10.5688">
<feGaussianBlur in="SourceGraphic" result="Blur" stdDeviation="44.3557"/>
</filter>
<linearGradient gradientTransform="matrix(704.12 0 0 704.12 77.2987 321.042)" gradientUnits="userSpaceOnUse" id="LinearGradient_2" x1="0" x2="1" y1="0" y2="0">
<stop offset="0" stop-color="#badbff"/>
<stop offset="1" stop-color="#2380ff"/>
</linearGradient>
<filter color-interpolation-filters="sRGB" filterUnits="userSpaceOnUse" height="573.404" id="Filter_3" width="1008.23" x="581.128" y="80.8289">
<feGaussianBlur in="SourceGraphic" result="Blur" stdDeviation="44.3557"/>
</filter>
<linearGradient gradientTransform="matrix(786.478 0.881805 0.881805 697.629 692.076 367.18)" gradientUnits="userSpaceOnUse" id="LinearGradient_3" x1="0" x2="1" y1="0" y2="0">
<stop offset="0.000559284" stop-color="#f8005b"/>
<stop offset="1" stop-color="#ffa4e7"/>
</linearGradient>
</defs>
<clipPath id="ArtboardFrame">
<rect height="643.664" width="1556.79" x="0" y="0"/>
</clipPath>
<g clip-path="url(#ArtboardFrame)" id="Ebene-1" vectornator:layerName="Ebene 1">
<g filter="url(#Filter)" opacity="0.900837" vectornator:blur="88.7114" vectornator:layerName="Gruppieren 2">
<path d="M606.025 513.535L931.682 513.535C953.617 513.535 974.062 509.906 993.018 502.649C1011.97 495.391 1028.51 485.29 1042.63 472.347C1056.75 459.404 1067.76 444.283 1075.66 426.985C1083.56 409.687 1087.52 390.998 1087.52 370.918C1087.52 350.435 1083.5 331.504 1075.47 314.125C1067.44 296.746 1056.17 281.585 1041.66 268.642C1027.15 255.699 1010.2 245.679 990.816 238.582C971.428 231.486 950.422 228.018 927.796 228.179C910.611 196.567 887.251 172.394 857.716 155.661C828.182 138.928 794.113 130.561 755.511 130.561C730.64 130.561 707.129 134.593 684.978 142.657C662.827 150.722 643.008 162.012 625.521 176.527C608.033 191.043 593.741 208.099 582.644 227.696C571.547 247.292 564.573 268.662 561.723 291.807C536.075 299.387 515.263 312.754 499.286 331.907C483.31 351.059 475.322 373.66 475.322 399.708C475.322 421.884 480.892 441.521 492.032 458.617C503.173 475.714 518.566 489.141 538.212 498.899C557.859 508.656 580.463 513.535 606.025 513.535Z" fill="url(#LinearGradient)" fill-rule="nonzero" opacity="1" stroke="none"/>
</g>
<g filter="url(#Filter_2)" opacity="0.900837" vectornator:blur="88.7114" vectornator:layerName="Gruppieren 3">
<path d="M227.628 541.763L602.185 541.763C627.414 541.763 650.93 537.58 672.732 529.214C694.534 520.848 713.554 509.205 729.794 494.286C746.034 479.367 758.698 461.938 767.786 441.999C776.875 422.06 781.419 400.518 781.419 377.372C781.419 353.762 776.8 331.94 767.563 311.909C758.325 291.877 745.363 274.401 728.677 259.482C711.99 244.563 692.497 233.013 670.199 224.833C647.9 216.653 623.739 212.656 597.716 212.842C577.95 176.404 551.082 148.541 517.113 129.253C483.144 109.964 443.96 100.32 399.561 100.32C370.955 100.32 343.914 104.968 318.437 114.264C292.96 123.559 270.164 136.573 250.051 153.305C229.938 170.037 213.499 189.696 200.736 212.284C187.972 234.872 179.952 259.505 176.674 286.183C147.174 294.921 123.237 310.328 104.862 332.405C86.4864 354.482 77.2987 380.533 77.2987 410.557C77.2987 436.12 83.7053 458.754 96.5183 478.46C109.331 498.167 127.036 513.644 149.633 524.891C172.229 536.139 198.228 541.763 227.628 541.763Z" fill="url(#LinearGradient_2)" fill-rule="nonzero" opacity="1" stroke="none"/>
</g>
<g filter="url(#Filter_3)" opacity="0.900837" vectornator:blur="88.7114" vectornator:layerName="Gruppieren 1">
<path d="M1311.65 195.886L893.435 191.736C865.266 191.456 838.978 194.506 814.569 200.885C790.161 207.264 768.831 216.267 750.582 227.893C732.332 239.52 718.055 253.172 707.751 268.85C697.447 284.529 692.204 301.526 692.023 319.843C691.837 338.527 696.823 355.847 706.979 371.802C717.136 387.757 731.471 401.73 749.986 413.721C768.5 425.713 790.174 435.069 815.007 441.789C839.84 448.51 866.785 451.94 895.843 452.082C917.626 481.137 947.406 503.484 985.183 519.125C1022.96 534.765 1066.63 542.831 1116.21 543.323C1148.15 543.64 1178.38 540.262 1206.9 533.188C1235.42 526.114 1260.97 516.068 1283.56 503.05C1306.15 490.032 1324.66 474.656 1339.08 456.922C1353.51 439.188 1362.66 419.783 1366.53 398.707C1399.54 392.119 1426.39 380.192 1447.08 362.925C1467.77 345.657 1478.23 325.144 1478.46 301.383C1478.67 281.154 1471.69 263.171 1457.54 247.434C1443.39 231.697 1423.74 219.253 1398.6 210.102C1373.46 200.95 1344.47 196.212 1311.65 195.886Z" fill="url(#LinearGradient_3)" fill-rule="nonzero" opacity="1" stroke="none"/>
</g>
<g fill="#ffffff" opacity="1" stroke="none" vectornator:layerName="Text 1">
<path d="M125.803 420.24L160.619 420.24L183.403 326.544L183.915 326.544L206.699 420.24L241.003 420.24L280.939 279.44L247.147 279.44L223.595 378.768L223.083 378.768L201.067 279.44L166.763 279.44L144.747 378.768L144.235 378.768L120.683 279.44L86.8907 279.44L125.803 420.24Z"/>
<path d="M358.507 424.592C398.187 424.592 429.931 397.968 429.931 349.84C429.931 301.712 398.187 275.088 358.507 275.088C318.827 275.088 287.083 301.712 287.083 349.84C287.083 397.968 318.827 424.592 358.507 424.592ZM321.643 349.84C321.643 317.328 336.235 300.688 358.507 300.688C380.779 300.688 395.371 317.328 395.371 349.84C395.371 382.352 380.779 398.992 358.507 398.992C336.235 398.992 321.643 382.352 321.643 349.84Z"/>
<path d="M452.203 420.24L484.459 420.24L484.459 339.344C484.459 316.304 493.419 305.808 512.875 305.808L532.331 305.808L532.331 279.44L518.763 279.44C500.075 279.44 491.115 287.632 484.459 301.712L483.947 301.712L483.947 279.44L452.203 279.44L452.203 420.24Z"/>
<path d="M548.203 420.24L580.459 420.24L580.459 382.352L599.147 361.104L599.659 361.104L637.291 420.24L677.483 420.24L621.163 337.04L672.363 279.44L633.451 279.44L580.971 340.88L580.459 340.88L580.459 220.304L548.203 220.304L548.203 420.24Z"/>
<path d="M691.819 420.24L724.587 420.24L724.587 343.184L808.043 343.184L808.043 316.816L724.587 316.816L724.587 267.408L818.027 267.408L818.027 241.04L691.819 241.04L691.819 420.24Z"/>
<path d="M878.443 424.592C897.131 424.592 912.491 416.144 920.939 398.736L921.451 398.736L921.451 420.24L953.195 420.24L953.195 279.44L920.939 279.44L920.939 360.08C920.939 388.24 905.579 398.736 889.195 398.736C873.323 398.736 862.571 389.008 862.571 363.92L862.571 279.44L830.315 279.44L830.315 367.76C830.315 405.136 849.259 424.592 878.443 424.592Z"/>
<path d="M1036.65 424.592C1075.82 424.592 1097.83 404.88 1097.83 376.976C1097.83 353.936 1082.47 334.992 1048.68 334.992L1031.79 334.992C1018.73 334.992 1010.79 329.872 1010.79 319.376C1010.79 307.856 1020.27 300.688 1035.63 300.688C1052.78 300.688 1061.48 309.136 1062.25 325.008L1095.27 325.008C1094.25 295.056 1073.51 275.088 1035.63 275.088C998.763 275.088 977.003 293.776 977.003 320.656C977.003 344.464 994.155 360.592 1023.59 360.592L1038.95 360.592C1056.36 360.592 1063.27 367.248 1063.27 378.256C1063.27 390.8 1053.8 398.992 1036.39 398.992C1019.75 398.992 1008.49 391.312 1007.72 373.648L974.443 373.648C975.467 404.624 997.227 424.592 1036.65 424.592Z"/>
<path d="M1119.85 420.24L1152.11 420.24L1152.11 279.44L1119.85 279.44L1119.85 420.24ZM1119.34 257.168L1152.36 257.168L1152.36 225.936L1119.34 225.936L1119.34 257.168Z"/>
<path d="M1245.8 424.592C1285.48 424.592 1317.23 397.968 1317.23 349.84C1317.23 301.712 1285.48 275.088 1245.8 275.088C1206.12 275.088 1174.38 301.712 1174.38 349.84C1174.38 397.968 1206.12 424.592 1245.8 424.592ZM1208.94 349.84C1208.94 317.328 1223.53 300.688 1245.8 300.688C1268.07 300.688 1282.67 317.328 1282.67 349.84C1282.67 382.352 1268.07 398.992 1245.8 398.992C1223.53 398.992 1208.94 382.352 1208.94 349.84Z"/>
<path d="M1339.5 420.24L1371.75 420.24L1371.75 339.6C1371.75 311.44 1387.63 300.944 1403.75 300.944C1419.63 300.944 1430.38 311.184 1430.38 335.76L1430.38 420.24L1462.63 420.24L1462.63 331.92C1462.63 294.544 1443.69 275.088 1415.02 275.088C1395.56 275.088 1380.2 284.304 1371.75 300.944L1371.24 300.944L1371.24 279.44L1339.5 279.44L1339.5 420.24Z"/>
</g>
</g>
</svg>
